<svg width="34" height="34" viewBox="0 0 34 34" fill="none" xmlns="http://www.w3.org/2000/svg">
<path d="M22.2502 16.8C22.2502 18.1924 21.6971 19.5277 20.7125 20.5123C19.7279 21.4969 18.3926 22.05 17.0002 22.05C15.6078 22.05 14.2725 21.4969 13.2879 20.5123C12.3033 19.5277 11.7502 18.1924 11.7502 16.8C11.7502 16.5008 11.7817 16.2085 11.8359 15.925H10.0002V22.9198C10.0002 23.4063 10.3939 23.8 10.8804 23.8H23.1217C23.3549 23.7995 23.5783 23.7066 23.743 23.5416C23.9077 23.3765 24.0002 23.1529 24.0002 22.9198V15.925H22.1644C22.2187 16.2085 22.2502 16.5008 22.2502 16.8ZM17.0002 20.3C17.4599 20.2999 17.9152 20.2092 18.3399 20.0332C18.7646 19.8571 19.1504 19.5992 19.4754 19.274C19.8004 18.9488 20.0582 18.5628 20.234 18.138C20.4099 17.7133 20.5003 17.258 20.5002 16.7983C20.5001 16.3385 20.4094 15.8833 20.2334 15.4586C20.0573 15.0339 19.7994 14.648 19.4742 14.323C19.149 13.998 18.763 13.7402 18.3382 13.5644C17.9135 13.3886 17.4582 13.2981 16.9984 13.2983C16.07 13.2985 15.1796 13.6675 14.5232 14.3243C13.8668 14.981 13.4982 15.8715 13.4984 16.8C13.4987 17.7285 13.8677 18.6189 14.5244 19.2752C15.1812 19.9316 16.0717 20.3002 17.0002 20.3ZM21.2002 13.125H23.2984C23.4378 13.125 23.5716 13.0697 23.6703 12.9713C23.769 12.8729 23.8247 12.7394 23.8252 12.6V10.5018C23.8252 10.362 23.7697 10.2281 23.6709 10.1293C23.5721 10.0305 23.4382 9.975 23.2984 9.975H21.2002C21.0605 9.975 20.9265 10.0305 20.8277 10.1293C20.7289 10.2281 20.6734 10.362 20.6734 10.5018V12.6C20.6752 12.8888 20.9114 13.125 21.2002 13.125ZM17.0002 0C12.5446 0 8.27141 1.76999 5.1208 4.92061C1.97019 8.07122 0.200195 12.3444 0.200195 16.8C0.200195 21.2556 1.97019 25.5288 5.1208 28.6794C8.27141 31.83 12.5446 33.6 17.0002 33.6C19.2064 33.6 21.391 33.1655 23.4293 32.3212C25.4676 31.4769 27.3196 30.2394 28.8796 28.6794C30.4396 27.1194 31.6771 25.2674 32.5214 23.2291C33.3657 21.1908 33.8002 19.0062 33.8002 16.8C33.8002 14.5938 33.3657 12.4092 32.5214 10.3709C31.6771 8.33265 30.4396 6.48063 28.8796 4.92061C27.3196 3.36058 25.4676 2.1231 23.4293 1.27882C21.391 0.434545 19.2064 0 17.0002 0ZM25.7502 23.6058C25.7502 24.675 24.8752 25.55 23.8059 25.55H10.1944C9.1252 25.55 8.2502 24.675 8.2502 23.6058V9.99425C8.2502 8.925 9.1252 8.05 10.1944 8.05H23.8059C24.8752 8.05 25.7502 8.925 25.7502 9.99425V23.6058Z" fill="#FFBA33"/>
</svg>
