<svg width="35" height="34" viewBox="0 0 35 34" fill="none" xmlns="http://www.w3.org/2000/svg">
<path d="M17.3996 0C8.12111 0 0.599609 7.5215 0.599609 16.8C0.599609 26.0785 8.12111 33.6 17.3996 33.6C26.6781 33.6 34.1996 26.0785 34.1996 16.8C34.1996 7.5215 26.6781 0 17.3996 0ZM24.2334 13.762C24.2404 13.9055 24.2421 14.049 24.2421 14.189C24.2421 18.564 20.9154 23.6058 14.8289 23.6058C13.0304 23.6087 11.2693 23.0922 9.75736 22.1183C10.0146 22.1498 10.2789 22.162 10.5466 22.162C12.0971 22.162 13.5234 21.6353 14.6556 20.7463C13.9656 20.7327 13.297 20.5042 12.7431 20.0927C12.1891 19.6811 11.7773 19.107 11.5651 18.4503C12.0606 18.5445 12.5711 18.5247 13.0579 18.3925C12.3089 18.2411 11.6355 17.8353 11.1516 17.2439C10.6677 16.6526 10.4033 15.9121 10.4031 15.148V15.1078C10.8494 15.3545 11.3604 15.505 11.9029 15.5225C11.2008 15.0551 10.7037 14.3372 10.5134 13.5155C10.3231 12.6938 10.454 11.8304 10.8791 11.102C11.7103 12.124 12.7468 12.9601 13.9216 13.556C15.0964 14.152 16.3833 14.4947 17.6989 14.5618C17.5316 13.8518 17.6036 13.1065 17.9036 12.4416C18.2037 11.7768 18.7149 11.2297 19.358 10.8855C20.001 10.5412 20.7398 10.419 21.4594 10.5379C22.1791 10.6568 22.8393 11.0102 23.3374 11.543C24.0779 11.3965 24.7881 11.1248 25.4374 10.7398C25.1905 11.5065 24.6738 12.1576 23.9831 12.572C24.6391 12.493 25.2796 12.3166 25.8836 12.0488C25.44 12.7136 24.8811 13.2938 24.2334 13.762Z" fill="#FFBA33"/>
</svg>
